<svg width="15" height="13" viewBox="0 0 15 13" fill="none" xmlns="http://www.w3.org/2000/svg">
<path d="M7.60156 9.03125H2.83594L1.76562 12H0.21875L4.5625 0.625H5.875L10.2266 12H8.6875L7.60156 9.03125ZM3.28906 7.79688H7.15625L5.21875 2.47656L3.28906 7.79688ZM12.3625 11.2422C12.3625 10.9922 12.4354 10.7839 12.5813 10.6172C12.7323 10.4505 12.9563 10.3672 13.2531 10.3672C13.55 10.3672 13.774 10.4505 13.925 10.6172C14.0813 10.7839 14.1594 10.9922 14.1594 11.2422C14.1594 11.4818 14.0813 11.6823 13.925 11.8438C13.774 12.0052 13.55 12.0859 13.2531 12.0859C12.9563 12.0859 12.7323 12.0052 12.5813 11.8438C12.4354 11.6823 12.3625 11.4818 12.3625 11.2422Z" fill="white"/>
</svg>
