<svg width="242" height="156" viewBox="0 0 242 156" fill="none" xmlns="http://www.w3.org/2000/svg">
<path d="M168.056 94.7277C168.063 102.616 166.36 110.42 163.056 117.637C159.752 124.854 154.921 131.327 148.871 136.64C147.188 138.119 145.419 139.504 143.572 140.789C141.201 142.437 138.706 143.912 136.106 145.201H136.079C135.525 145.481 134.962 145.748 134.395 146.006C134.136 146.129 133.882 146.242 133.618 146.356C131.974 147.083 130.288 147.735 128.56 148.313C127.197 148.75 125.799 149.188 124.387 149.547C116.241 151.635 107.726 152.022 99.4122 150.68C98.4268 150.523 97.4551 150.343 96.4879 150.138L95.6705 149.958C93.2033 149.403 90.7763 148.692 88.4052 147.831C87.0279 147.332 85.6777 146.785 84.3548 146.19C83.8417 145.958 83.3286 145.722 82.8246 145.476C82.4795 145.31 82.1389 145.139 81.7984 144.969C72.5591 140.292 64.7754 133.332 59.2444 124.802C53.7133 116.272 50.6336 106.479 50.3207 96.4246C50.0077 86.3703 52.4727 76.4164 57.4633 67.5823C62.4539 58.7482 69.7907 51.3512 78.7224 46.1489C87.6541 40.9465 97.8599 38.1257 108.295 37.9753C118.729 37.8249 129.018 40.3504 138.107 45.293C147.196 50.2356 154.759 57.4178 160.022 66.1041C165.284 74.7905 168.057 84.6689 168.056 94.7277Z" fill="url(#paint0_linear)"/>
<path d="M124.604 98.8333C128.355 102.554 139.28 117.032 139.28 117.032L132.569 126.516L126.534 107.674L124.604 98.8333Z" fill="url(#paint1_linear)"/>
<path d="M136.08 145.231C135.526 145.511 134.963 145.778 134.395 146.037C134.136 146.159 133.882 146.273 133.619 146.387C131.975 147.113 130.289 147.765 128.56 148.343C127.198 148.781 125.799 149.219 124.387 149.577C116.241 151.666 107.726 152.052 99.4127 150.711C98.4273 150.553 97.4556 150.374 96.4884 150.168C92.9466 152.523 89.6772 154.514 87.5112 155.42L87.6883 153.963L88.4239 147.866L90.1267 133.681L96.8744 127.392L81.7035 128.525C81.7035 128.525 83.2973 107.21 89.5182 102.825C95.7392 98.4392 102.264 94.5089 102.264 94.5089C103.043 95.0037 103.9 95.3718 104.803 95.5987C106.96 96.1736 109.203 96.394 111.437 96.2508C114.098 96.1326 116.759 93.7473 116.886 93.6248C116.886 93.6248 121.063 94.4257 124.605 98.8506C126.372 101.128 127.64 103.728 128.333 106.492C129.205 109.727 130.753 117.281 132.515 126.407C133.669 132.28 134.881 138.793 136.08 145.231Z" fill="url(#paint2_linear)"/>
<path d="M139.281 117.049L145.756 124.363L168.528 102.575L169.391 98.1154L173.932 94.312L171.911 100.111V107.666C171.911 107.666 154.347 135.108 149.507 136.522C143.844 138.18 132.578 126.508 132.578 126.508L139.281 117.049Z" fill="url(#paint3_linear)"/>
<path d="M115.641 127.05L120.922 139.305L127.747 136.478L122.743 124.486L115.641 127.05Z" fill="#7E57C2"/>
<path d="M122.997 134.968C122.148 135.642 120.881 135.484 119.31 135.563C117.199 135.617 115.175 136.382 113.589 137.725C111.477 139.436 105.574 143.914 99.671 148.002C98.5994 148.741 97.5278 149.472 96.4925 150.19C92.9506 152.545 89.6812 154.536 87.5153 155.442C86.9458 155.715 86.3309 155.888 85.6989 155.954C82.6657 156.029 82.0163 149.901 81.8302 145.012C81.7711 143.389 81.7575 141.905 81.7257 140.833C81.5986 136.543 81.7257 128.578 81.7257 128.578L96.8966 127.44L95.2891 137.568L95.0076 139.358V139.371L99.5484 137.751L99.6892 137.703L115.809 131.93L116.922 130.079L117.63 131.83H117.698L124.6 130.954C124.6 130.954 124.718 133.607 122.997 134.968Z" fill="url(#paint4_linear)"/>
<path d="M119.514 71.0932C119.119 70.0515 118.779 69.3425 118.679 69.1324V69.0799C118.679 69.0799 118.329 69.9115 115.695 69.7101C113.062 69.5088 112.19 68.2483 112.19 68.2483C112.19 68.2483 113.016 70.9794 109.879 72.148C106.859 73.2772 105.669 72.5463 105.587 72.4938C105.746 72.6601 108.108 75.0936 106.541 77.0237C104.92 79.0239 101.274 78.63 101.274 78.63V78.6563C101.733 79.6579 102.246 80.6353 102.813 81.5843C103.113 82.0833 103.408 82.5428 103.721 82.9718V83.0024C104.525 84.2633 105.611 85.3354 106.9 86.1405C106.333 89.3435 104.707 92.2838 102.264 94.5221C103.086 94.9355 103.933 95.2994 104.802 95.6119C106.496 96.229 108.771 96.8418 110.8 96.6711C113.152 96.4287 115.325 95.3486 116.894 93.6423L115.854 89.7951L114.919 86.3287C123.374 84.2498 121.049 75.2074 119.514 71.0932ZM114.447 86.4557L114.596 86.4207L114.837 86.355C114.487 86.501 114.117 86.5983 113.738 86.6439C113.933 86.5957 114.133 86.5432 114.342 86.4819L114.447 86.4557Z" fill="url(#paint5_linear)"/>
<path d="M124.604 68.9661C121.117 72.0561 119.609 71.1851 119.514 71.1019V71.0932C119.119 70.0515 118.778 69.3425 118.683 69.1324L118.66 69.0799C118.66 69.0799 118.306 69.9115 115.672 69.7101C113.039 69.5088 112.171 68.2483 112.171 68.2483C112.171 68.2483 112.998 70.9794 109.86 72.148C106.836 73.2772 105.646 72.5463 105.569 72.4938C105.728 72.6557 108.089 75.0892 106.523 77.0194C104.902 79.0195 101.255 78.63 101.255 78.63V78.6519C101.714 79.655 102.228 80.6339 102.795 81.5843C103.097 82.0803 103.4 82.5428 103.703 82.9718V83.0024C103.703 83.0024 102.459 85.3615 100.238 85.3133C98.0177 85.2652 97.9677 83.1249 97.9677 83.1249C97.9677 83.1249 96.3966 85.856 91.5425 83.2256C86.6883 80.5952 89.9259 76.783 89.9259 76.783C89.9259 76.783 86.484 74.2445 86.484 70.4411C86.484 66.6376 91.8422 63.7446 91.8422 63.7446C91.8422 63.7446 89.9259 59.3284 93.159 56.8949C96.3921 54.4614 101.251 56.1115 101.251 56.1115C101.251 56.1115 101.155 50.4611 106.105 50.553C111.054 50.6449 112.176 53.5642 112.176 53.5642C112.176 53.5642 116.626 50.2466 121.031 53.3716C125.435 56.4967 123.623 61.9457 123.623 61.9457C123.623 61.9457 128.241 65.7492 124.604 68.9661Z" fill="url(#paint6_linear)"/>
<path opacity="0.15" d="M115.891 89.7819C113.779 89.1385 110.024 86.6832 110.024 86.6832C111.506 86.8341 113.003 86.7573 114.46 86.4556L114.61 86.4206L114.901 86.3374H114.942L115.891 89.7819Z" fill="black"/>
<path opacity="0.15" d="M98.9218 114.301L96.8739 127.431L95.2664 137.559L91.5248 140.557L99.6665 137.708C99.6665 137.708 97.555 131.895 98.9218 114.301Z" fill="black"/>
<path opacity="0.15" d="M96.4792 150.168C97.4464 150.374 98.4181 150.554 99.4034 150.711C99.4534 149.814 99.5442 148.908 99.6714 148.002L96.4792 150.168Z" fill="black"/>
<g filter="url(#filter0_d)">
<path d="M81.0968 10.1796H55.2543C51.6882 10.1796 48.7973 12.966 48.7973 16.4033V41.3122C48.7973 44.7495 51.6882 47.5359 55.2543 47.5359H81.0968C84.6629 47.5359 87.5538 44.7495 87.5538 41.3122V16.4033C87.5538 12.966 84.6629 10.1796 81.0968 10.1796Z" fill="#56CCF2"/>
</g>
<path d="M77.8724 27.552H73.9438L76.9963 24.5896L75.6679 23.2912L71.2777 27.552H69.3935V25.7234L73.7837 21.4626L72.4459 20.1733L69.3935 23.1358V19.323H67.5093V23.1358L64.4568 20.1733L63.119 21.4626L67.5093 25.7234V27.552H65.625L61.2348 23.2912L59.9065 24.5896L62.9589 27.552H59.0303V29.3807H62.9589L59.9065 32.3432L61.2348 33.6415L65.625 29.3807H67.5093V31.2094L63.119 35.4702L64.4568 36.7594L67.5093 33.797V37.6098H69.3935V33.797L72.4459 36.7594L73.7837 35.4702L69.3935 31.2094V29.3807H71.2777L75.6679 33.6415L76.9963 32.3432L73.9438 29.3807H77.8724V27.552Z" fill="white"/>
<g filter="url(#filter1_d)">
<path d="M214.745 98.3564H188.903C185.337 98.3564 182.446 101.143 182.446 104.58V129.489C182.446 132.926 185.337 135.713 188.903 135.713H214.745C218.312 135.713 221.202 132.926 221.202 129.489V104.58C221.202 101.143 218.312 98.3564 214.745 98.3564Z" fill="#F2C94C"/>
</g>
<path d="M210.709 113.9C210.709 109.328 206.941 105.671 202.23 105.671C197.52 105.671 193.751 109.328 193.751 113.9C193.751 116.735 195.259 119.295 197.52 120.758V123.044C197.52 124.232 198.273 125.238 199.404 125.604V125.787C199.404 127.341 200.629 128.53 202.23 128.53C203.832 128.53 205.057 127.341 205.057 125.787V125.604C206.187 125.238 206.941 124.232 206.941 123.044V120.758C209.202 119.295 210.709 116.735 210.709 113.9ZM195.636 113.9C195.636 110.334 198.556 107.5 202.23 107.5C205.904 107.5 208.825 110.334 208.825 113.9C208.825 117.1 206.375 119.752 203.172 120.209V117.923L204.774 116.369C205.151 116.003 205.151 115.455 204.774 115.089C204.397 114.723 203.832 114.723 203.455 115.089L202.23 116.277L201.005 115.089C200.629 114.723 200.063 114.723 199.687 115.089C199.31 115.455 199.31 116.003 199.687 116.369L201.288 117.923V120.209C198.085 119.752 195.636 117.1 195.636 113.9ZM202.23 126.701C201.665 126.701 201.288 126.335 201.288 125.787H203.172C203.172 126.335 202.795 126.701 202.23 126.701ZM205.057 123.044C205.057 123.592 204.68 123.958 204.114 123.958H200.346C199.781 123.958 199.404 123.592 199.404 123.044V121.672C200.252 121.946 201.194 122.129 202.23 122.129C203.267 122.129 204.209 121.946 205.057 121.672V123.044Z" fill="white"/>
<g filter="url(#filter2_d)">
<path d="M42.3402 98.3564H16.4977C12.9316 98.3564 10.0407 101.143 10.0407 104.58V129.489C10.0407 132.926 12.9316 135.713 16.4977 135.713H42.3402C45.9063 135.713 48.7972 132.926 48.7972 129.489V104.58C48.7972 101.143 45.9063 98.3564 42.3402 98.3564Z" fill="#F58A8A"/>
</g>
<path d="M35.4776 113.9H34.5355V112.071C34.5355 109.548 32.4251 107.5 29.8249 107.5C27.2247 107.5 25.1144 109.548 25.1144 112.071V113.9H24.1723C23.136 113.9 22.2881 114.723 22.2881 115.729V124.872C22.2881 125.878 23.136 126.701 24.1723 126.701H35.4776C36.5139 126.701 37.3618 125.878 37.3618 124.872V115.729C37.3618 114.723 36.5139 113.9 35.4776 113.9ZM29.8249 122.129C28.7886 122.129 27.9407 121.306 27.9407 120.301C27.9407 119.295 28.7886 118.472 29.8249 118.472C30.8612 118.472 31.7091 119.295 31.7091 120.301C31.7091 121.306 30.8612 122.129 29.8249 122.129ZM32.7455 113.9H26.9044V112.071C26.9044 110.508 28.2139 109.237 29.8249 109.237C31.4359 109.237 32.7455 110.508 32.7455 112.071V113.9Z" fill="white"/>
<g filter="url(#filter3_d)">
<path d="M172.351 10.1796H146.508C142.942 10.1796 140.051 12.966 140.051 16.4033V41.3122C140.051 44.7495 142.942 47.5359 146.508 47.5359H172.351C175.917 47.5359 178.808 44.7495 178.808 41.3122V16.4033C178.808 12.966 175.917 10.1796 172.351 10.1796Z" fill="#6FCF97"/>
</g>
<path d="M164.839 23.8H149.453V33.1326H164.839V23.8Z" fill="white"/>
<path d="M168.986 25.6571L165.59 27.0424V29.9295L168.986 31.3148H170.218V25.6571H168.986Z" fill="white"/>
<defs>
<filter id="filter0_d" x="38.7973" y="0.179565" width="68.7565" height="67.3564" filterUnits="userSpaceOnUse" color-interpolation-filters="sRGB">
<feFlood flood-opacity="0" result="BackgroundImageFix"/>
<feColorMatrix in="SourceAlpha" type="matrix" values="0 0 0 0 0 0 0 0 0 0 0 0 0 0 0 0 0 0 127 0"/>
<feOffset dx="5" dy="5"/>
<feGaussianBlur stdDeviation="7.5"/>
<feColorMatrix type="matrix" values="0 0 0 0 0 0 0 0 0 0 0 0 0 0 0 0 0 0 0.15 0"/>
<feBlend mode="normal" in2="BackgroundImageFix" result="effect1_dropShadow"/>
<feBlend mode="normal" in="SourceGraphic" in2="effect1_dropShadow" result="shape"/>
</filter>
<filter id="filter1_d" x="172.446" y="88.3564" width="68.7565" height="67.3564" filterUnits="userSpaceOnUse" color-interpolation-filters="sRGB">
<feFlood flood-opacity="0" result="BackgroundImageFix"/>
<feColorMatrix in="SourceAlpha" type="matrix" values="0 0 0 0 0 0 0 0 0 0 0 0 0 0 0 0 0 0 127 0"/>
<feOffset dx="5" dy="5"/>
<feGaussianBlur stdDeviation="7.5"/>
<feColorMatrix type="matrix" values="0 0 0 0 0 0 0 0 0 0 0 0 0 0 0 0 0 0 0.15 0"/>
<feBlend mode="normal" in2="BackgroundImageFix" result="effect1_dropShadow"/>
<feBlend mode="normal" in="SourceGraphic" in2="effect1_dropShadow" result="shape"/>
</filter>
<filter id="filter2_d" x="0.040741" y="88.3564" width="68.7565" height="67.3563" filterUnits="userSpaceOnUse" color-interpolation-filters="sRGB">
<feFlood flood-opacity="0" result="BackgroundImageFix"/>
<feColorMatrix in="SourceAlpha" type="matrix" values="0 0 0 0 0 0 0 0 0 0 0 0 0 0 0 0 0 0 127 0"/>
<feOffset dx="5" dy="5"/>
<feGaussianBlur stdDeviation="7.5"/>
<feColorMatrix type="matrix" values="0 0 0 0 0 0 0 0 0 0 0 0 0 0 0 0 0 0 0.15 0"/>
<feBlend mode="normal" in2="BackgroundImageFix" result="effect1_dropShadow"/>
<feBlend mode="normal" in="SourceGraphic" in2="effect1_dropShadow" result="shape"/>
</filter>
<filter id="filter3_d" x="130.051" y="0.179565" width="68.7564" height="67.3564" filterUnits="userSpaceOnUse" color-interpolation-filters="sRGB">
<feFlood flood-opacity="0" result="BackgroundImageFix"/>
<feColorMatrix in="SourceAlpha" type="matrix" values="0 0 0 0 0 0 0 0 0 0 0 0 0 0 0 0 0 0 127 0"/>
<feOffset dx="5" dy="5"/>
<feGaussianBlur stdDeviation="7.5"/>
<feColorMatrix type="matrix" values="0 0 0 0 0 0 0 0 0 0 0 0 0 0 0 0 0 0 0.15 0"/>
<feBlend mode="normal" in2="BackgroundImageFix" result="effect1_dropShadow"/>
<feBlend mode="normal" in="SourceGraphic" in2="effect1_dropShadow" result="shape"/>
</filter>
<linearGradient id="paint0_linear" x1="109.417" y1="44.1318" x2="107.546" y2="155.991" gradientUnits="userSpaceOnUse">
<stop stop-color="white" stop-opacity="0"/>
<stop offset="1" stop-color="#64B5F6" stop-opacity="0.6"/>
</linearGradient>
<linearGradient id="paint1_linear" x1="120.159" y1="95.0736" x2="135.507" y2="123.054" gradientUnits="userSpaceOnUse">
<stop stop-color="#E57373"/>
<stop offset="1" stop-color="#AD1457"/>
</linearGradient>
<linearGradient id="paint2_linear" x1="24909.9" y1="34163.4" x2="23312.2" y2="42344.2" gradientUnits="userSpaceOnUse">
<stop stop-color="#E57373"/>
<stop offset="1" stop-color="#AD1457"/>
</linearGradient>
<linearGradient id="paint3_linear" x1="180.094" y1="105.188" x2="136.926" y2="131.133" gradientUnits="userSpaceOnUse">
<stop stop-color="#FFF8E1"/>
<stop offset="1" stop-color="#FFCC80"/>
</linearGradient>
<linearGradient id="paint4_linear" x1="19166.5" y1="19151.7" x2="16847.7" y2="17529.6" gradientUnits="userSpaceOnUse">
<stop stop-color="#FFF8E1"/>
<stop offset="1" stop-color="#FFCC80"/>
</linearGradient>
<linearGradient id="paint5_linear" x1="123.96" y1="75.5503" x2="100.238" y2="85.6853" gradientUnits="userSpaceOnUse">
<stop stop-color="#FFF8E1"/>
<stop offset="1" stop-color="#FFCC80"/>
</linearGradient>
<linearGradient id="paint6_linear" x1="118.456" y1="50.3867" x2="91.7045" y2="87.8874" gradientUnits="userSpaceOnUse">
<stop stop-color="#FFB74D"/>
<stop offset="1" stop-color="#F4511E"/>
</linearGradient>
</defs>
</svg>
