<svg width="12" height="13" viewBox="0 0 12 13" fill="none" xmlns="http://www.w3.org/2000/svg">
<path d="M6.75 6.96045H1.82031V10.9917H7.54688V12.2183H0.320312V0.843262H7.46875V2.07764H1.82031V5.73389H6.75V6.96045ZM10.0188 11.4604C10.0188 11.2104 10.0917 11.0021 10.2375 10.8354C10.3885 10.6688 10.6125 10.5854 10.9094 10.5854C11.2063 10.5854 11.4302 10.6688 11.5813 10.8354C11.7375 11.0021 11.8156 11.2104 11.8156 11.4604C11.8156 11.7 11.7375 11.9006 11.5813 12.062C11.4302 12.2235 11.2063 12.3042 10.9094 12.3042C10.6125 12.3042 10.3885 12.2235 10.2375 12.062C10.0917 11.9006 10.0188 11.7 10.0188 11.4604Z" fill="white"/>
</svg>
