<svg width="12" height="13" viewBox="0 0 12 13" fill="none" xmlns="http://www.w3.org/2000/svg">
<path d="M9.17969 2.07751H5.52344V12.2181H4.03125V2.07751H0.382812V0.84314H9.17969V2.07751ZM9.76875 11.4603C9.76875 11.2103 9.84167 11.002 9.9875 10.8353C10.1385 10.6687 10.3625 10.5853 10.6594 10.5853C10.9563 10.5853 11.1802 10.6687 11.3313 10.8353C11.4875 11.002 11.5656 11.2103 11.5656 11.4603C11.5656 11.6999 11.4875 11.9004 11.3313 12.0619C11.1802 12.2233 10.9563 12.3041 10.6594 12.3041C10.3625 12.3041 10.1385 12.2233 9.9875 12.0619C9.84167 11.9004 9.76875 11.6999 9.76875 11.4603Z" fill="white"/>
</svg>
